<?xml version="1.0" standalone="no"?>
<!DOCTYPE svg PUBLIC "-//W3C//DTD SVG 20010904//EN"
 "http://www.w3.org/TR/2001/REC-SVG-20010904/DTD/svg10.dtd">
<svg version="1.0" xmlns="http://www.w3.org/2000/svg"
 width="260.000000pt" height="260.000000pt" viewBox="0 0 260.000000 260.000000"
 preserveAspectRatio="xMidYMid meet">
<metadata>
Created by potrace 1.14, written by Peter Selinger 2001-2017
</metadata>
<g transform="translate(0.000000,260.000000) scale(0.100000,-0.100000)"
fill="#000000" stroke="none">
<path d="M2090 2555 l0 -45 -505 0 -505 0 0 -45 0 -45 -65 0 -65 0 0 -45 c0
-43 -1 -45 -30 -45 -29 0 -30 -2 -30 -45 0 -45 0 -45 -35 -45 -35 0 -35 0 -35
-45 l0 -45 -60 0 -60 0 0 -45 c0 -45 0 -45 -35 -45 -35 0 -35 0 -35 -45 0 -43
-1 -45 -30 -45 -29 0 -30 -2 -30 -45 0 -43 -1 -45 -30 -45 -29 0 -30 -2 -30
-45 0 -45 0 -45 -35 -45 -35 0 -35 0 -35 -45 0 -43 -1 -45 -30 -45 -29 0 -30
-2 -30 -45 0 -43 -1 -45 -30 -45 l-30 0 0 -135 0 -135 -35 0 -35 0 0 -130 0
-130 -30 0 -30 0 0 -135 0 -135 -30 0 -30 0 0 -135 0 -135 -35 0 c-35 0 -35 0
-35 -45 0 -43 -1 -45 -30 -45 l-30 0 0 -225 0 -225 1300 0 1300 0 0 45 0 45
-65 0 -65 0 0 45 c0 43 -1 45 -30 45 -29 0 -30 2 -30 45 0 43 -1 45 -30 45
l-30 0 0 225 0 225 -65 0 -65 0 0 45 0 45 65 0 65 0 0 310 0 310 30 0 30 0 0
540 0 540 30 0 c29 0 30 2 30 45 l0 45 -190 0 -190 0 0 -45z"/>
</g>
</svg>
